<?xml version="1.0" encoding="UTF-8" standalone="no"?>
<!-- Created with Inkscape (http://www.inkscape.org/) -->

<svg
   width="24.999556mm"
   height="22.329388mm"
   viewBox="0 0 24.999556 22.329388"
   version="1.1"
   id="svg1"
   xmlns="http://www.w3.org/2000/svg"
   xmlns:svg="http://www.w3.org/2000/svg">
   <style>
    path {
      fill: hsl(240 5.9% 10%);
    }
    @media (prefers-color-scheme: dark) {
      path {
        fill: hsl(0 0% 98%);
      }
    }
  </style>
  <defs
     id="defs1" />
  <g
     id="layer1"
     transform="translate(-38.629342,-208.22709)">
    <path
       d="m 46.148088,208.22708 c -0.906201,-1e-5 -1.743587,0.4834 -2.196766,1.26814 l -4.982124,8.62738 c -0.453137,0.78471 -0.453137,1.75158 0,2.53628 l 4.982641,8.62945 c 0.453055,0.78462 1.290222,1.26801 2.196249,1.26814 h 9.963732 c 0.906047,-6e-5 1.743248,-0.48347 2.196249,-1.26814 l 4.981091,-8.62945 c 0.452987,-0.78474 0.452987,-1.75153 0,-2.53628 l -4.980574,-8.62738 c -0.453125,-0.7848 -1.290545,-1.26822 -2.196766,-1.26814 z m 2.789493,6.25233 h 4.383712 c 0.398866,-1.1e-4 0.767471,0.21266 0.966866,0.55811 l 2.191598,3.79563 c 0.19941,0.34536 0.19941,0.77086 0,1.11622 l -2.191598,3.79666 c -0.199381,0.34547 -0.567995,0.55824 -0.966866,0.55811 h -4.383712 c -0.398677,-9e-5 -0.767036,-0.21283 -0.966349,-0.55811 l -2.192631,-3.79666 c -0.199476,-0.34534 -0.199476,-0.77088 0,-1.11622 l 2.192631,-3.79563 c 0.199327,-0.34527 0.567677,-0.558 0.966349,-0.55811 z"
       id="path85" />
  </g>
</svg>
